<svg width="64" height="64" viewBox="0 0 64 64" fill="none" xmlns="http://www.w3.org/2000/svg">
<path d="M32 57.6C38.7895 57.6 45.301 54.9029 50.1019 50.1019C54.9029 45.301 57.6 38.7895 57.6 32C57.6 25.2105 54.9029 18.699 50.1019 13.8981C45.301 9.09714 38.7895 6.4 32 6.4C25.2105 6.4 18.699 9.09714 13.8981 13.8981C9.09714 18.699 6.4 25.2105 6.4 32C6.4 38.7895 9.09714 45.301 13.8981 50.1019C18.699 54.9029 25.2105 57.6 32 57.6ZM32 64C14.3264 64 0 49.6736 0 32C0 14.3264 14.3264 0 32 0C49.6736 0 64 14.3264 64 32C64 49.6736 49.6736 64 32 64ZM32 44.8C35.3948 44.8 38.6505 43.4514 41.051 41.051C43.4514 38.6505 44.8 35.3948 44.8 32C44.8 28.6052 43.4514 25.3495 41.051 22.949C38.6505 20.5486 35.3948 19.2 32 19.2C28.6052 19.2 25.3495 20.5486 22.949 22.949C20.5486 25.3495 19.2 28.6052 19.2 32C19.2 35.3948 20.5486 38.6505 22.949 41.051C25.3495 43.4514 28.6052 44.8 32 44.8ZM32 51.2C26.9078 51.2 22.0243 49.1772 18.4236 45.5765C14.8229 41.9758 12.8 37.0922 12.8 32C12.8 26.9078 14.8229 22.0243 18.4236 18.4236C22.0243 14.8229 26.9078 12.8 32 12.8C37.0922 12.8 41.9758 14.8229 45.5765 18.4236C49.1772 22.0243 51.2 26.9078 51.2 32C51.2 37.0922 49.1772 41.9758 45.5765 45.5765C41.9758 49.1772 37.0922 51.2 32 51.2Z" fill="#D0D6DA"/>
<path d="M27.3745 36.4255C28.5748 37.6257 30.2026 38.3 31.9 38.3C33.5974 38.3 35.2252 37.6257 36.4255 36.4255C37.6257 35.2252 38.3 33.5974 38.3 31.9C38.3 30.2026 37.6257 28.5748 36.4255 27.3745C35.2252 26.1743 33.5974 25.5 31.9 25.5C30.2026 25.5 28.5748 26.1743 27.3745 27.3745C26.1743 28.5748 25.5 30.2026 25.5 31.9C25.5 33.5974 26.1743 35.2252 27.3745 36.4255Z" fill="#F02E2E"/>
</svg>
