<svg width="15" height="12" viewBox="0 0 15 12" fill="none" xmlns="http://www.w3.org/2000/svg">
<path d="M8.92388 0.00256582C9.36677 0.00241436 9.80249 0.114348 10.1905 0.327942C10.5784 0.541537 10.9061 0.849844 11.1428 1.22415C11.3795 1.59846 11.5177 2.02659 11.5444 2.46867C11.5711 2.91075 11.4855 3.35241 11.2956 3.7525L13.2995 3.75175C13.4984 3.75175 13.6891 3.83075 13.8297 3.97137C13.9703 4.112 14.0493 4.30272 14.0493 4.50159C14.0493 4.70046 13.9703 4.89123 13.8297 5.03185C13.6891 5.17247 13.4984 5.25147 13.2995 5.25147H13.048V11.2502C13.048 11.449 12.969 11.6398 12.8284 11.7804C12.6877 11.921 12.497 12 12.2981 12H1.80042C1.60155 12 1.41083 11.921 1.27021 11.7804C1.12959 11.6398 1.05059 11.449 1.05059 11.2502V5.25147H0.749837C0.550968 5.25147 0.360244 5.17247 0.219622 5.03185C0.0790005 4.89123 0 4.7005 0 4.50163C0 4.30276 0.0790005 4.112 0.219622 3.97137C0.360244 3.83075 0.550968 3.75175 0.749837 3.75175L2.80296 3.7525C2.53583 3.19138 2.4765 2.55367 2.63552 1.95289C2.79454 1.35212 3.16159 0.82727 3.67134 0.471779C4.18109 0.116287 4.80045 -0.046777 5.41916 0.0116145C6.03788 0.0700061 6.61579 0.346064 7.05003 0.790645C7.29376 0.540593 7.58519 0.342001 7.90706 0.206631C8.22893 0.0712622 8.5747 0.00187006 8.92388 0.00256582ZM11.5483 5.25147H2.55026V10.5003H11.5483V5.25147ZM5.17469 1.50224C4.88584 1.50238 4.60812 1.61365 4.39907 1.81298C4.19002 2.01231 4.06567 2.28443 4.05179 2.57294C4.03791 2.86146 4.13556 3.14426 4.32451 3.36274C4.51345 3.58122 4.77921 3.71863 5.06671 3.7465L5.17469 3.75175H6.29945V2.627C6.29943 2.3474 6.19528 2.07782 6.0073 1.87085C5.81931 1.66387 5.56098 1.53433 5.28267 1.50749L5.17469 1.50224ZM8.92388 1.50224L8.8159 1.50749C8.55599 1.53239 8.31284 1.64694 8.12814 1.8315C7.94345 2.01606 7.82871 2.25913 7.80362 2.51902L7.79912 2.627V3.75175H8.92388L9.03185 3.7465C9.31006 3.71953 9.56826 3.58994 9.75613 3.38297C9.944 3.17601 10.0481 2.90651 10.0481 2.627C10.0481 2.34748 9.944 2.07798 9.75613 1.87102C9.56826 1.66406 9.31006 1.53446 9.03185 1.50749L8.92388 1.50224Z" fill="#981CC4"/>
</svg>
