<svg width="20" height="16" viewBox="0 0 20 16" fill="none" xmlns="http://www.w3.org/2000/svg">
<path d="M18.3333 8.24967V14.4997C18.3333 14.7207 18.2455 14.9327 18.0893 15.0889C17.933 15.2452 17.721 15.333 17.5 15.333H16.6667C16.4457 15.333 16.2337 15.2452 16.0774 15.0889C15.9211 14.9327 15.8333 14.7207 15.8333 14.4997V13.6663H4.16667V14.4997C4.16667 14.7207 4.07887 14.9327 3.92259 15.0889C3.76631 15.2452 3.55435 15.333 3.33333 15.333H2.5C2.27899 15.333 2.06702 15.2452 1.91074 15.0889C1.75446 14.9327 1.66667 14.7207 1.66667 14.4997V8.24967L0.630833 7.99134C0.450628 7.9462 0.290674 7.84213 0.176379 7.69568C0.0620851 7.54923 4.88369e-06 7.36878 0 7.18301L0 6.58301C0 6.4725 0.0438987 6.36652 0.122039 6.28838C0.200179 6.21024 0.30616 6.16634 0.416667 6.16634H1.97917L3.76083 1.41467C3.87994 1.09692 4.09321 0.823093 4.37213 0.629802C4.65105 0.436511 4.98232 0.332966 5.32167 0.333008H14.6783C15.0177 0.332966 15.349 0.436511 15.6279 0.629802C15.9068 0.823093 16.1201 1.09692 16.2392 1.41467L18.0208 6.16634H19.5833C19.6938 6.16634 19.7998 6.21024 19.878 6.28838C19.9561 6.36652 20 6.4725 20 6.58301V7.18301C20 7.36878 19.9379 7.54923 19.8236 7.69568C19.7093 7.84213 19.5494 7.9462 19.3692 7.99134L18.3333 8.24967ZM3.33333 9.49967V11.1663C3.33333 11.3874 3.42113 11.5993 3.57741 11.7556C3.73369 11.9119 3.94565 11.9997 4.16667 11.9997H6.87083C6.94279 11.9996 7.01348 11.9808 7.07604 11.9453C7.13859 11.9097 7.19088 11.8586 7.2278 11.7968C7.26472 11.7351 7.28502 11.6648 7.28672 11.5929C7.28842 11.5209 7.27146 11.4498 7.2375 11.3863C6.56667 10.128 5.265 9.49967 3.33333 9.49967ZM16.6667 9.49967C14.7358 9.49967 13.4342 10.1288 12.7617 11.3863C12.7277 11.4498 12.7107 11.5211 12.7125 11.5931C12.7142 11.6651 12.7346 11.7354 12.7716 11.7972C12.8086 11.8589 12.861 11.9101 12.9237 11.9456C12.9863 11.9811 13.0571 11.9997 13.1292 11.9997H15.8333C16.0543 11.9997 16.2663 11.9119 16.4226 11.7556C16.5789 11.5993 16.6667 11.3874 16.6667 11.1663V9.49967ZM5 1.99967L3.69917 5.90301C3.65746 6.02822 3.64609 6.16154 3.666 6.29201C3.6859 6.42247 3.7365 6.54634 3.81364 6.65342C3.89078 6.76051 3.99224 6.84774 4.10969 6.90793C4.22713 6.96813 4.35719 6.99957 4.48917 6.99967H15.5108C15.6428 6.99957 15.7729 6.96813 15.8903 6.90793C16.0078 6.84774 16.1092 6.76051 16.1864 6.65342C16.2635 6.54634 16.3141 6.42247 16.334 6.29201C16.3539 6.16154 16.3425 6.02822 16.3008 5.90301L15 1.99967H5Z" fill="#909497"/>
</svg>
