<svg width="18" height="18" viewBox="0 0 18 18" fill="none" xmlns="http://www.w3.org/2000/svg">
<path d="M10.9993 7V11H6.99927V7H10.9993ZM12.9993 7H17.9993V11H12.9993V7ZM10.9993 18H6.99927V13H10.9993V18ZM12.9993 18V13H17.9993V17C17.9993 17.2652 17.8939 17.5196 17.7064 17.7071C17.5188 17.8946 17.2645 18 16.9993 18H12.9993ZM10.9993 0V5H6.99927V0H10.9993ZM12.9993 0H16.9993C17.2645 0 17.5188 0.105357 17.7064 0.292893C17.8939 0.48043 17.9993 0.734784 17.9993 1V5H12.9993V0ZM4.99927 7V11H-0.000732422V7H4.99927ZM4.99927 18H0.999268C0.734051 18 0.479697 17.8946 0.292161 17.7071C0.104624 17.5196 -0.000732422 17.2652 -0.000732422 17V13H4.99927V18ZM4.99927 0V5H-0.000732422V1C-0.000732422 0.734784 0.104624 0.48043 0.292161 0.292893C0.479697 0.105357 0.734051 0 0.999268 0H4.99927Z" fill="#909497"/>
</svg>
