<svg width="12" height="14" viewBox="0 0 12 14" fill="none" xmlns="http://www.w3.org/2000/svg">
<path d="M7.33341 8.00004V4.33337C7.33341 3.62613 7.05246 2.94785 6.55237 2.44776C6.05227 1.94766 5.37399 1.66671 4.66675 1.66671C3.9595 1.66671 3.28123 1.94766 2.78113 2.44776C2.28103 2.94785 2.00008 3.62613 2.00008 4.33337V8.00004C2.00008 9.14931 2.45663 10.2515 3.26928 11.0642C4.08194 11.8768 5.18414 12.3334 6.33341 12.3334C7.48269 12.3334 8.58489 11.8768 9.39754 11.0642C10.2102 10.2515 10.6667 9.14931 10.6667 8.00004V1.66671H12.0001V8.00004C12.0001 9.50293 11.4031 10.9443 10.3404 12.007C9.27765 13.0697 7.83631 13.6667 6.33341 13.6667C4.83052 13.6667 3.38918 13.0697 2.32648 12.007C1.26377 10.9443 0.666748 9.50293 0.666748 8.00004V4.33337C0.666748 3.27251 1.08818 2.25509 1.83832 1.50495C2.58847 0.754801 3.60588 0.333374 4.66675 0.333374C5.72761 0.333374 6.74503 0.754801 7.49517 1.50495C8.24532 2.25509 8.66675 3.27251 8.66675 4.33337V8.00004C8.66675 8.61888 8.42091 9.21237 7.98333 9.64996C7.54574 10.0875 6.95225 10.3334 6.33341 10.3334C5.71458 10.3334 5.12108 10.0875 4.6835 9.64996C4.24591 9.21237 4.00008 8.61888 4.00008 8.00004V4.33337H5.33341V8.00004C5.33341 8.26526 5.43877 8.51961 5.62631 8.70715C5.81384 8.89468 6.0682 9.00004 6.33341 9.00004C6.59863 9.00004 6.85298 8.89468 7.04052 8.70715C7.22806 8.51961 7.33341 8.26526 7.33341 8.00004Z" fill="black"/>
</svg>
