<svg width="16" height="14" viewBox="0 0 16 14" fill="none" xmlns="http://www.w3.org/2000/svg">
<path d="M14.6663 7.99993H12.6663V-7.34329e-05H14.6663C14.8432 -7.34329e-05 15.0127 0.0701647 15.1377 0.195189C15.2628 0.320213 15.333 0.489782 15.333 0.666594V7.33326C15.333 7.51007 15.2628 7.67964 15.1377 7.80466C15.0127 7.92969 14.8432 7.99993 14.6663 7.99993ZM11.1377 8.86193L6.87101 13.1286C6.8143 13.1855 6.73897 13.2199 6.65886 13.2257C6.57876 13.2315 6.49926 13.2081 6.43501 13.1599L5.86634 12.7333C5.70841 12.6147 5.58911 12.452 5.5235 12.2658C5.45789 12.0795 5.44891 11.878 5.49767 11.6866L6.26634 8.66659H1.99967C1.64605 8.66659 1.30691 8.52612 1.05687 8.27607C0.806817 8.02602 0.666341 7.68688 0.666341 7.33326V5.93059C0.666161 5.75635 0.700134 5.58377 0.76634 5.42259L2.82967 0.412593C2.88001 0.290448 2.9655 0.186012 3.07529 0.112539C3.18508 0.0390663 3.31423 -0.000128746 3.44634 -7.34329e-05H10.6663C10.8432 -7.34329e-05 11.0127 0.0701647 11.1377 0.195189C11.2628 0.320213 11.333 0.489782 11.333 0.666594V8.39059C11.333 8.56739 11.2627 8.73693 11.1377 8.86193Z" fill="#B9C9D4"/>
</svg>
