<svg width="16" height="16" viewBox="0 0 16 16" fill="none" xmlns="http://www.w3.org/2000/svg">
<path d="M13.3327 14.666H2.66602V13.3327C2.66602 12.4486 3.01721 11.6008 3.64233 10.9757C4.26745 10.3505 5.11529 9.99935 5.99935 9.99935H9.99935C10.8834 9.99935 11.7312 10.3505 12.3564 10.9757C12.9815 11.6008 13.3327 12.4486 13.3327 13.3327V14.666ZM7.99935 8.66602C7.47406 8.66602 6.95392 8.56255 6.46862 8.36153C5.98331 8.16051 5.54236 7.86588 5.17092 7.49444C4.79949 7.12301 4.50485 6.68205 4.30383 6.19675C4.10281 5.71145 3.99935 5.1913 3.99935 4.66602C3.99935 4.14073 4.10281 3.62058 4.30383 3.13528C4.50485 2.64998 4.79949 2.20902 5.17092 1.83759C5.54236 1.46615 5.98331 1.17152 6.46862 0.970497C6.95392 0.769479 7.47406 0.666016 7.99935 0.666016C9.06021 0.666016 10.0776 1.08744 10.8278 1.83759C11.5779 2.58773 11.9993 3.60515 11.9993 4.66602C11.9993 5.72688 11.5779 6.7443 10.8278 7.49444C10.0776 8.24459 9.06021 8.66602 7.99935 8.66602Z" fill="#D0D6DA"/>
</svg>
