<svg width="16" height="10" viewBox="0 0 16 10" fill="none" xmlns="http://www.w3.org/2000/svg">
<path d="M15.6299 8.52721C15.6113 8.48719 15.594 8.45399 15.5779 8.42739C15.3119 7.94817 14.8034 7.35996 14.0528 6.66259L14.037 6.64662L14.029 6.63879L14.021 6.63076H14.0129C13.6723 6.30603 13.4566 6.08769 13.3662 5.9759C13.201 5.76296 13.1639 5.54741 13.2543 5.32901C13.3181 5.164 13.5578 4.81553 13.9729 4.28311C14.1913 4.00095 14.3642 3.7748 14.4919 3.60442C15.4129 2.38001 15.8122 1.59759 15.6897 1.25686L15.6421 1.17724C15.6101 1.1293 15.5276 1.08545 15.3947 1.04545C15.2615 1.00554 15.0912 0.998943 14.8835 1.02554L12.5839 1.04143C12.5467 1.02823 12.4935 1.02946 12.4242 1.04545C12.3549 1.06145 12.3203 1.06948 12.3203 1.06948L12.2803 1.08947L12.2485 1.1135C12.2219 1.12938 12.1926 1.15732 12.1607 1.19726C12.1289 1.23706 12.1023 1.28376 12.081 1.33699C11.8306 1.98111 11.546 2.57997 11.2265 3.13356C11.0295 3.46366 10.8486 3.74974 10.6834 3.99197C10.5185 4.23411 10.38 4.41252 10.2683 4.52688C10.1565 4.64135 10.0555 4.73305 9.96484 4.80233C9.87431 4.87163 9.8052 4.90091 9.75735 4.8902C9.70938 4.87949 9.66421 4.86886 9.62145 4.85824C9.54698 4.8103 9.48707 4.74511 9.4419 4.6626C9.39654 4.5801 9.366 4.47626 9.35003 4.35116C9.33414 4.22597 9.32474 4.1183 9.32206 4.02777C9.31957 3.93735 9.32072 3.80945 9.32611 3.64445C9.33165 3.47935 9.33414 3.36765 9.33414 3.30909C9.33414 3.10677 9.33809 2.8872 9.346 2.65031C9.35405 2.41343 9.36057 2.22574 9.36602 2.08747C9.37145 1.94906 9.37397 1.80262 9.37397 1.64824C9.37397 1.49386 9.36457 1.37278 9.346 1.28491C9.32765 1.19715 9.29949 1.11196 9.26238 1.02937C9.22504 0.946868 9.17039 0.883046 9.09868 0.837738C9.02683 0.792487 8.93751 0.756577 8.8312 0.729896C8.54904 0.666046 8.18974 0.631506 7.75314 0.626136C6.76306 0.615508 6.12688 0.679442 5.84475 0.817853C5.73296 0.876333 5.6318 0.956236 5.54136 1.05731C5.44551 1.17447 5.43214 1.2384 5.50133 1.24892C5.82078 1.29677 6.04692 1.41124 6.18002 1.59222L6.22799 1.68812C6.26529 1.75731 6.30255 1.87981 6.33983 2.05544C6.37705 2.23108 6.40108 2.42537 6.41165 2.6382C6.43822 3.02687 6.43822 3.35957 6.41165 3.63634C6.38499 3.91321 6.35982 4.12876 6.3358 4.28314C6.31178 4.43752 6.27587 4.56262 6.22799 4.65841C6.18002 4.75423 6.14811 4.81279 6.13211 4.83404C6.11614 4.8553 6.10283 4.8687 6.09226 4.87395C6.02307 4.90047 5.95111 4.91398 5.87663 4.91398C5.80204 4.91398 5.71159 4.87667 5.60515 4.80211C5.49873 4.72754 5.38829 4.62513 5.27382 4.49469C5.15935 4.36422 5.03025 4.1819 4.88647 3.9477C4.7428 3.7135 4.59373 3.4367 4.43935 3.11731L4.31162 2.88569C4.23178 2.73668 4.1227 2.5197 3.98429 2.23497C3.8458 1.95012 3.72338 1.67458 3.61697 1.40842C3.57443 1.29663 3.51052 1.21152 3.42536 1.15296L3.3854 1.12894C3.35883 1.10768 3.31618 1.08511 3.25767 1.06106C3.19908 1.03703 3.13794 1.01981 3.074 1.00921L0.886134 1.02509C0.662562 1.02509 0.510866 1.07574 0.430991 1.1769L0.399024 1.22475C0.383055 1.25141 0.375 1.29397 0.375 1.35256C0.375 1.41113 0.390969 1.483 0.422936 1.56811C0.742325 2.31876 1.08965 3.0427 1.46492 3.74004C1.84019 4.43738 2.16629 4.99911 2.44303 5.42472C2.71982 5.85064 3.00196 6.25261 3.28944 6.63045C3.57692 7.00843 3.76721 7.25066 3.86031 7.35708C3.95353 7.46369 4.02675 7.5434 4.07997 7.59662L4.27963 7.78822C4.40738 7.91601 4.59499 8.06905 4.84253 8.24734C5.09013 8.42574 5.36424 8.60138 5.665 8.77453C5.96582 8.94739 6.31578 9.08846 6.71507 9.19756C7.1143 9.30678 7.50288 9.3506 7.88087 9.32946H8.79915C8.98539 9.31338 9.12648 9.25481 9.22238 9.15374L9.25415 9.11372C9.27552 9.08195 9.29552 9.03258 9.31398 8.96616C9.33266 8.89963 9.34194 8.82632 9.34194 8.74659C9.33649 8.51773 9.35391 8.31147 9.39374 8.12783C9.43354 7.94426 9.4789 7.80584 9.52963 7.71263C9.58034 7.6195 9.63756 7.54091 9.70124 7.4772C9.76507 7.41335 9.81054 7.37467 9.83722 7.36136C9.86373 7.34796 9.88491 7.33887 9.90088 7.33342C10.0286 7.29085 10.179 7.33207 10.3522 7.45728C10.5252 7.58238 10.6875 7.73685 10.8393 7.92043C10.991 8.10417 11.1733 8.31032 11.3862 8.53918C11.5992 8.76812 11.7855 8.9383 11.9451 9.05026L12.1048 9.14608C12.2114 9.21001 12.3498 9.26857 12.5202 9.3218C12.6902 9.37499 12.8393 9.3883 12.9672 9.3617L15.0113 9.32982C15.2134 9.32982 15.3708 9.29635 15.4824 9.22992C15.5942 9.16339 15.6606 9.09009 15.682 9.01035C15.7034 8.93053 15.7045 8.83997 15.6861 8.73873C15.6671 8.63774 15.6485 8.56712 15.6299 8.52721Z" fill="#D0D6DA"/>
</svg>
