<svg width="13" height="14" viewBox="0 0 13 14" fill="none" xmlns="http://www.w3.org/2000/svg">
<path d="M8.84375 0.75H4.15625C1.99922 0.75 0.25 2.49922 0.25 4.65625V9.34375C0.25 11.5008 1.99922 13.25 4.15625 13.25H8.84375C11.0008 13.25 12.75 11.5008 12.75 9.34375V4.65625C12.75 2.49922 11.0008 0.75 8.84375 0.75ZM11.5781 9.34375C11.5781 10.8516 10.3516 12.0781 8.84375 12.0781H4.15625C2.64844 12.0781 1.42188 10.8516 1.42188 9.34375V4.65625C1.42188 3.14844 2.64844 1.92188 4.15625 1.92188H8.84375C10.3516 1.92188 11.5781 3.14844 11.5781 4.65625V9.34375Z" fill="#D0D6DA"/>
<path d="M6.5 3.875C4.77422 3.875 3.375 5.27422 3.375 7C3.375 8.72578 4.77422 10.125 6.5 10.125C8.22578 10.125 9.625 8.72578 9.625 7C9.625 5.27422 8.22578 3.875 6.5 3.875ZM6.5 8.95312C5.42344 8.95312 4.54688 8.07656 4.54688 7C4.54688 5.92266 5.42344 5.04688 6.5 5.04688C7.57656 5.04688 8.45312 5.92266 8.45312 7C8.45312 8.07656 7.57656 8.95312 6.5 8.95312Z" fill="#D0D6DA"/>
<path d="M9.85952 4.05718C10.0895 4.05718 10.2759 3.87075 10.2759 3.64077C10.2759 3.4108 10.0895 3.22437 9.85952 3.22437C9.62955 3.22437 9.44312 3.4108 9.44312 3.64077C9.44312 3.87075 9.62955 4.05718 9.85952 4.05718Z" fill="#D0D6DA"/>
</svg>
