<svg width="16" height="14" viewBox="0 0 16 14" fill="none" xmlns="http://www.w3.org/2000/svg">
<path d="M1.33366 6.00007H3.33366V14.0001H1.33366C1.15685 14.0001 0.987279 13.9298 0.862254 13.8048C0.73723 13.6798 0.666992 13.5102 0.666992 13.3334V6.66674C0.666992 6.48993 0.73723 6.32036 0.862254 6.19534C0.987279 6.07031 1.15685 6.00007 1.33366 6.00007ZM4.86233 5.13807L9.12899 0.871408C9.1857 0.814537 9.26103 0.780052 9.34114 0.774295C9.42124 0.768539 9.50074 0.791897 9.56499 0.840074L10.1337 1.26674C10.2916 1.3853 10.4109 1.54798 10.4765 1.73424C10.5421 1.92051 10.5511 2.12204 10.5023 2.31341L9.73366 5.33341H14.0003C14.3539 5.33341 14.6931 5.47388 14.9431 5.72393C15.1932 5.97398 15.3337 6.31312 15.3337 6.66674V8.06941C15.3338 8.24365 15.2999 8.41623 15.2337 8.57741L13.1703 13.5874C13.12 13.7096 13.0345 13.814 12.9247 13.8875C12.8149 13.9609 12.6858 14.0001 12.5537 14.0001H5.33366C5.15685 14.0001 4.98728 13.9298 4.86225 13.8048C4.73723 13.6798 4.66699 13.5102 4.66699 13.3334V5.60941C4.66703 5.43261 4.73729 5.26307 4.86233 5.13807Z" fill="#B9C9D4"/>
</svg>
