<svg width="32" height="32" viewBox="0 0 32 32" fill="none" xmlns="http://www.w3.org/2000/svg">
<circle cx="16" cy="16" r="16" fill="#FF9F2F"/>
<path d="M10.3273 13.3769L11.1846 20.6669H20.8139L21.6713 13.3769L18.9979 15.1589L15.9993 10.9609L13.0006 15.1589L10.3273 13.3769ZM9.86661 11.4669L12.6659 13.3336L15.4566 9.42688C15.5183 9.34046 15.5997 9.27002 15.6941 9.22142C15.7885 9.17282 15.8931 9.14746 15.9993 9.14746C16.1054 9.14746 16.2101 9.17282 16.3045 9.22142C16.3989 9.27002 16.4803 9.34046 16.5419 9.42688L19.3326 13.3336L22.1326 11.4669C22.2386 11.3964 22.3625 11.3577 22.4898 11.3554C22.617 11.3531 22.7423 11.3872 22.8507 11.4538C22.9592 11.5204 23.0463 11.6167 23.1018 11.7312C23.1573 11.8458 23.1789 11.9738 23.1639 12.1002L22.0686 21.4116C22.0495 21.5737 21.9715 21.7232 21.8495 21.8317C21.7275 21.9402 21.5699 22.0002 21.4066 22.0002H10.5919C10.4287 22.0002 10.271 21.9402 10.149 21.8317C10.027 21.7232 9.94904 21.5737 9.92994 21.4116L8.83461 12.0996C8.81981 11.9732 8.84146 11.8453 8.89702 11.7308C8.95258 11.6164 9.03971 11.5202 9.14815 11.4537C9.25658 11.3872 9.38178 11.3531 9.50897 11.3554C9.63615 11.3578 9.76002 11.3964 9.86594 11.4669H9.86661Z" fill="white"/>
</svg>
