<svg width="16" height="16" viewBox="0 0 16 16" fill="none" xmlns="http://www.w3.org/2000/svg">
<path d="M13.3337 14.6667H2.66699V13.3334C2.66699 12.4494 3.01818 11.6015 3.6433 10.9764C4.26842 10.3513 5.11627 10.0001 6.00033 10.0001H10.0003C10.8844 10.0001 11.7322 10.3513 12.3573 10.9764C12.9825 11.6015 13.3337 12.4494 13.3337 13.3334V14.6667ZM8.00033 8.66675C7.47504 8.66675 6.95489 8.56328 6.46959 8.36227C5.98429 8.16125 5.54333 7.86661 5.1719 7.49518C4.80046 7.12374 4.50583 6.68278 4.30481 6.19748C4.10379 5.71218 4.00033 5.19204 4.00033 4.66675C4.00033 4.14146 4.10379 3.62132 4.30481 3.13601C4.50583 2.65071 4.80046 2.20976 5.1719 1.83832C5.54333 1.46689 5.98429 1.17225 6.46959 0.97123C6.95489 0.770211 7.47504 0.666748 8.00033 0.666748C9.06119 0.666748 10.0786 1.08818 10.8288 1.83832C11.5789 2.58847 12.0003 3.60588 12.0003 4.66675C12.0003 5.72761 11.5789 6.74503 10.8288 7.49518C10.0786 8.24532 9.06119 8.66675 8.00033 8.66675Z" fill="#D0D6DA"/>
</svg>
