<svg width="118" height="82" viewBox="0 0 118 82" fill="none" xmlns="http://www.w3.org/2000/svg">
<g clip-path="url(#clip0)">
<path d="M114.999 1.33337H61.6654C60.3767 1.33337 59.332 2.37804 59.332 3.66671V78.3334C59.332 79.622 60.3767 80.6667 61.6654 80.6667H114.999C116.287 80.6667 117.332 79.622 117.332 78.3334V3.66671C117.332 2.37804 116.287 1.33337 114.999 1.33337Z" fill="white" stroke="#E7E5F0"/>
<path fill-rule="evenodd" clip-rule="evenodd" d="M64.332 47.6666H72.332V49H64.332V47.6666ZM64.332 51.6666H72.332V53H64.332V51.6666ZM78.9987 55.6666H70.9987V57H78.9987V55.6666ZM64.332 59.6666H72.332V61H64.332V59.6666ZM90.9987 47.6666H85.6654V49H90.9987V47.6666ZM89.6654 53V51.6666H94.9987V53H89.6654ZM69.6654 55.6666H64.332V57H69.6654V55.6666ZM73.6654 59.6666H78.9987V61H73.6654V59.6666ZM100.332 47.6666H92.332V49H100.332V47.6666ZM104.332 51.6666H112.332V53H104.332V51.6666ZM112.332 55.6666H104.332V57H112.332V55.6666ZM101.665 47.6666H104.332V49H101.665V47.6666ZM88.332 51.6666H85.6654V53H88.332V51.6666ZM80.332 55.6666H82.9987V57H80.332V55.6666ZM112.332 47.6666H105.665V49H112.332V47.6666ZM96.332 51.6666H102.999V53H96.332V51.6666ZM102.999 55.6666H96.332V57H102.999V55.6666ZM73.6654 47.6666H84.332V49H73.6654V47.6666ZM84.332 51.6666H73.6654V53H84.332V51.6666ZM94.9987 55.6666V57H84.332V55.6666H94.9987ZM90.9987 61V59.6666H80.332V61H90.9987Z" fill="#B9B6C9"/>
</g>
<path d="M56.6667 1.3335H3.33333C2.04467 1.3335 1 2.37816 1 3.66683V78.3335C1 79.6222 2.04467 80.6668 3.33333 80.6668H56.6667C57.9553 80.6668 59 79.6222 59 78.3335V3.66683C59 2.37816 57.9553 1.3335 56.6667 1.3335Z" fill="white" stroke="#E7E5F0"/>
<path fill-rule="evenodd" clip-rule="evenodd" d="M53.3333 7H6V39H54V7H53.3333ZM53.3333 7.66667H30.6667V11.6667H53.3333V7.66667ZM53.3333 12.3333H30.6667V38.3333H53.3333V12.3333ZM6.66667 7.66667H30V11.6667H6.66667V7.66667ZM6.66667 12.3333H30V38.3333H6.66667V12.3333Z" fill="#B9B6C9"/>
<path fill-rule="evenodd" clip-rule="evenodd" d="M26.6693 15H9.33594V16.3333H26.6693V15ZM50.6693 15H33.3359V16.3333H50.6693V15ZM9.33594 21.6667H26.6693V23H9.33594V21.6667ZM50.6693 21.6667H33.3359V23H50.6693V21.6667ZM9.33594 28.3333H26.6693V29.6667H9.33594V28.3333ZM19.3359 17.6667H9.33594V19H19.3359V17.6667ZM33.3359 17.6667H43.3359V19H33.3359V17.6667ZM14.0026 24.3333H9.33594V25.6667H14.0026V24.3333ZM33.3359 24.3333H38.0026V25.6667H33.3359V24.3333ZM17.3359 31H9.33594V32.3333H17.3359V31Z" fill="#B9B6C9"/>
<path fill-rule="evenodd" clip-rule="evenodd" d="M50.668 31.6663C50.668 34.2437 48.5786 36.333 46.0013 36.333C43.424 36.333 41.3346 34.2437 41.3346 31.6663C41.3346 29.089 43.424 26.9997 46.0013 26.9997C48.5786 26.9997 50.668 29.089 50.668 31.6663ZM51.3346 31.6663C51.3346 34.6119 48.9468 36.9997 46.0013 36.9997C43.0558 36.9997 40.668 34.6119 40.668 31.6663C40.668 28.7208 43.0558 26.333 46.0013 26.333C48.9468 26.333 51.3346 28.7208 51.3346 31.6663ZM48.668 31.6663C48.668 33.1391 47.474 34.333 46.0013 34.333C44.5286 34.333 43.3346 33.1391 43.3346 31.6663C43.3346 30.1936 44.5286 28.9997 46.0013 28.9997C47.474 28.9997 48.668 30.1936 48.668 31.6663ZM49.3346 31.6663C49.3346 33.5073 47.8422 34.9997 46.0013 34.9997C44.1604 34.9997 42.668 33.5073 42.668 31.6663C42.668 29.8254 44.1604 28.333 46.0013 28.333C47.8422 28.333 49.3346 29.8254 49.3346 31.6663Z" fill="#77738C"/>
<defs>
<clipPath id="clip0">
<rect width="58.6667" height="80" fill="white" transform="translate(59 1)"/>
</clipPath>
</defs>
</svg>
