<svg width="80" height="80" viewBox="0 0 80 80" fill="none" xmlns="http://www.w3.org/2000/svg">
<circle cx="40" cy="40" r="39.5" fill="white" stroke="#DEE8EE"/>
<path fill-rule="evenodd" clip-rule="evenodd" d="M47.264 33.432C46.6415 32.8863 45.7463 32.8987 45.2326 33.0573C45.5692 32.6441 46.3528 32.3053 46.5838 32.2642C46.7597 32.3301 47.2639 32.8484 47.2639 33.4319L47.264 33.432ZM49.2515 31.1722C48.8421 28.9824 43.753 30.4333 41.1901 29.5031C41.1409 30.1415 41.979 31.1644 42.7807 31.5429C41.4103 32.7322 40.18 35.1284 39.9318 38.0558C39.6843 35.1284 38.454 32.7322 37.0836 31.5429C37.8853 31.1644 38.7241 30.1415 38.6743 29.5031C36.1114 30.4333 31.0222 28.9824 30.6121 31.1722C30.5258 31.6356 30.7488 32.3419 30.9897 32.5449C31.0328 32.398 31.2578 31.9176 31.9672 31.8099C35.5527 31.2681 38.5462 36.7942 35.8441 39.0284C35.8029 39.0624 35.826 39.1251 35.8818 39.1251H43.983C44.0382 39.1251 44.0614 39.0624 44.021 39.0284C41.318 36.7942 44.3116 31.2681 47.897 31.8099C48.6071 31.9176 48.8313 32.398 48.8746 32.5449C49.1154 32.3419 49.3384 31.6356 49.2515 31.1721V31.1722ZM50.1235 26.1462C50.0592 25.9393 52.1614 25.9341 52.1614 27.2499C52.1614 28.1318 50.904 28.5495 50.904 29.4647C50.904 29.8909 51.3625 30.2036 51.5032 30.2036C51.1793 28.7343 52.5186 29.5031 52.8802 29.7779C52.1615 27.8021 53.7794 27.8146 53.6202 26.9086C53.5093 26.2754 52.1031 26.4667 51.5941 26.1462C50.691 25.5777 49.6226 23.3655 48.9185 25.5777C50.2311 26.7964 49.4673 28.59 47.801 28.59C47.801 28.59 47.7916 28.853 47.8069 28.8739C49.7945 28.7766 50.4873 27.3159 50.1236 26.1462H50.1235ZM26.9357 29.7779C27.2975 29.5031 28.6365 28.7343 28.3135 30.2036C28.4534 30.2036 28.912 29.8909 28.912 29.4647C28.912 28.5495 27.6544 28.1318 27.6544 27.2499C27.6544 25.934 29.7568 25.9393 29.6923 26.1462C29.3293 27.3158 30.0223 28.7767 32.0097 28.8739C32.0243 28.853 32.015 28.59 32.015 28.59C30.3493 28.59 29.5855 26.7962 30.8975 25.5777C30.1933 23.3655 29.1249 25.5777 28.2218 26.1462C27.7129 26.4667 26.3066 26.2754 26.1958 26.9086C26.0371 27.8146 27.6543 27.8021 26.9356 29.7779H26.9357ZM32.579 33.4319C33.2021 32.8862 34.0974 32.8987 34.6104 33.0572C34.2753 32.644 33.4903 32.3052 33.2599 32.2641C33.0841 32.3301 32.5791 32.8483 32.5791 33.4319L32.579 33.4319ZM40.8775 21.1821L39.9079 20L38.9384 21.1821L39.908 22.4262L40.8776 21.1821H40.8775ZM46.412 24.7565L45.7225 23.9164L45.0337 24.7565L45.7225 25.5776L46.412 24.7564V24.7565ZM52.0042 49.0393L51.1302 48.1143L50.2562 49.0393L51.1302 49.8506L52.0042 49.0391V49.0393ZM34.7829 24.7564L34.0933 23.9163L33.4045 24.7564L34.0933 25.5775L34.7828 24.7564H34.7829ZM32.8079 28.8738H35.3794C37.5414 28.8738 38.5143 27.5468 38.8083 26.396H41.0082C41.3022 27.5469 42.2743 28.8738 44.4371 28.8738H47.0086C47.0086 28.8738 47.4584 28.2635 47.5712 27.9614C47.9774 26.8739 47.4584 26.3667 46.7012 26.3667L45.7224 27.2538L44.7436 26.3667C43.9864 26.3667 43.4675 26.8739 43.8736 27.9614C43.9254 28.1005 44.0495 28.3047 44.1669 28.4842C43.2544 28.3588 42.0898 27.7342 41.8343 26.396C41.8343 26.396 42.5085 25.3249 42.6778 24.8915C43.2857 23.3329 42.5092 22.6957 41.3738 22.6957L39.9079 24.419L38.442 22.6957C37.3066 22.6957 36.5302 23.3328 37.1387 24.8915C37.3074 25.325 37.9822 26.3961 37.9822 26.3961C37.726 27.7343 36.5614 28.3589 35.6489 28.4842C35.7671 28.3047 35.8905 28.1005 35.9423 27.9614C36.3477 26.874 35.8301 26.3668 35.0722 26.3668L34.0934 27.2538L33.1147 26.3668C32.3569 26.3668 31.8392 26.874 32.2447 27.9614C32.3575 28.2636 32.8081 28.8739 32.8081 28.8739L32.8079 28.8738ZM59.3941 36.8449C58.8976 37.0963 55.9858 38.4604 52.2556 37.9559C52.2943 37.7779 52.327 37.5988 52.3539 37.4187C54.8364 37.1217 56.8545 36.7007 58.1405 35.9853C59.6065 35.1694 60.2475 33.2217 59.5075 31.7726C59.4884 31.736 59.4353 31.7296 59.4087 31.7601C59.0033 32.2269 56.4537 35.0004 52.4369 35.8626C52.4266 35.6545 52.4076 35.447 52.3798 35.2405C54.3307 34.1341 56.2354 32.8593 57.1425 31.6936C58.5136 29.9311 58.3874 27.6832 57.0829 26.537C57.0693 26.5254 57.0514 26.5201 57.0337 26.5226C57.0161 26.5251 57.0003 26.5351 56.9906 26.5501C56.5779 27.2308 52.7144 33.4755 48.4725 36.1712C48.4208 36.2043 48.3686 36.2368 48.316 36.2685C48.1945 36.3423 48.1813 36.5002 48.2848 36.5942C48.7738 37.0374 49.0778 37.6542 49.0778 38.339C49.0778 39.5295 48.16 40.5197 46.9469 40.7344C46.3304 40.8539 45.4404 40.8193 44.5857 40.5367C44.5472 40.5243 44.5074 40.5497 44.5074 40.5882V44.3591C44.5074 44.4197 44.5997 44.4348 44.6216 44.3766C45.1411 43.0001 46.6966 42.7076 47.3769 42.7076C47.6217 44.1789 48.059 45.3976 48.6271 46.0535C49.552 47.1194 51.0625 47.1044 51.7175 46.3675C51.7283 46.3553 51.7329 46.3388 51.7301 46.3228C51.7272 46.3067 51.7172 46.2929 51.7028 46.2852C51.318 46.064 49.1161 44.7122 48.6754 42.4968C48.8494 42.4368 49.0192 42.3688 49.1819 42.2885C49.8926 43.4648 50.9271 44.5124 51.7599 44.9125C53.1589 45.5836 54.4396 45.2572 55.0076 44.2749C55.0282 44.2402 55.003 44.1971 54.9612 44.1933C54.0958 44.124 51.4401 43.3629 50.3093 41.5086C50.4387 41.3897 50.5655 41.2657 50.6836 41.1339C51.8668 42.0346 53.5398 42.8309 54.7376 42.9935C56.1391 43.1841 57.7271 42.7369 57.7657 41.1071C57.7663 41.0744 57.7371 41.0477 57.7027 41.0497C57.2042 41.0797 53.9054 41.2233 51.5549 39.874C51.6366 39.7188 51.7127 39.5608 51.7832 39.4002C51.7832 39.4002 55.3349 40.2397 57.0177 39.9615C58.6901 39.6854 59.6696 38.4387 59.4804 36.8879C59.4751 36.8492 59.43 36.8265 59.3942 36.8447L59.3941 36.8449ZM28.0326 39.4003C28.1033 39.561 28.1796 39.719 28.2615 39.8742C25.9117 41.2228 22.6142 41.0805 22.1139 41.0499C22.0787 41.0478 22.0495 41.0759 22.0502 41.1079C22.0895 42.7371 23.6768 43.1842 25.0782 42.9937C26.2755 42.8311 27.9491 42.0348 29.1322 41.134C29.2511 41.2659 29.3772 41.3899 29.5065 41.5087C28.3751 43.3629 25.72 44.1241 24.8546 44.1933C24.8128 44.1972 24.7883 44.2403 24.8082 44.2749C25.3763 45.2572 26.657 45.5836 28.0566 44.9126C28.8888 44.5125 29.9233 43.4649 30.6341 42.2887C30.7973 42.3689 30.9672 42.4368 31.1404 42.4969C30.6997 44.7122 28.4979 46.0641 28.1129 46.2852C28.0987 46.2931 28.0888 46.3069 28.086 46.3229C28.0832 46.3389 28.0877 46.3553 28.0983 46.3675C28.7534 47.1045 30.2644 47.1195 31.1894 46.0536C31.7576 45.3976 32.1942 44.1789 32.439 42.7077C33.1199 42.7077 34.6747 43.0002 35.1943 44.3767C35.2168 44.4348 35.309 44.4197 35.309 44.3591V40.5882C35.309 40.5498 35.2686 40.5243 35.2301 40.5367C34.3754 40.8193 33.4855 40.8539 32.8697 40.7344C31.656 40.5198 30.7382 39.5296 30.7382 38.339C30.7382 37.6542 31.0428 37.0367 31.5312 36.5935C31.6353 36.5002 31.6214 36.3422 31.5006 36.2685C31.4476 36.2367 31.3949 36.2042 31.3427 36.1712C27.1035 33.4768 23.242 27.2367 22.8259 26.5513C22.8066 26.5193 22.7602 26.5128 22.7316 26.5375C21.429 27.6844 21.3022 29.9317 22.6732 31.6934C23.5804 32.8591 25.4849 34.134 27.4353 35.2404C27.4078 35.4468 27.389 35.6543 27.3789 35.8624C23.3654 35.0008 20.8178 32.2318 20.4083 31.7619C20.3812 31.7299 20.3266 31.7365 20.3081 31.773C19.5697 33.2228 20.2106 35.1692 21.6753 35.9851C22.9613 36.7005 24.9794 37.1215 27.4619 37.4185C27.4887 37.5986 27.5215 37.7777 27.5601 37.9557C23.8339 38.4596 20.9233 37.0987 20.423 36.8454C20.3858 36.8265 20.3407 36.85 20.3361 36.8892C20.1477 38.44 21.1264 39.6854 22.7987 39.9615C24.481 40.2397 28.0326 39.4002 28.0326 39.4002V39.4003ZM51.1302 51.0418L49.8361 50.0235C49.3198 50.331 48.9402 50.8194 48.7929 51.3917C48.0146 51.5008 45.8922 51.0295 46.0986 50.7169C48.4246 47.4454 46.6454 45.4976 44.5073 45.6059V47.8031C44.5073 48.5087 43.8915 49.0804 43.1329 49.0804H41.6565C40.5974 49.0804 39.9079 50.1451 39.9079 50.1451C39.9079 50.1451 39.2185 49.0804 38.1593 49.0804H36.6828C35.9237 49.0804 35.3092 48.5087 35.3092 47.8031V45.606C33.1711 45.4977 31.3905 47.4455 33.7172 50.717C33.9216 51.0263 31.7403 51.5218 30.7171 51.3964C30.4476 51.117 30.0587 50.9408 29.6233 50.9408C29.4383 50.9409 29.2547 50.9738 29.0812 51.0381C29.0812 51.0381 25.0604 47.2314 24.9868 47.1941L25.02 47.1171C25.2489 46.6889 24.8985 46.2222 24.6769 46.2549C24.9343 45.9462 24.9464 44.5943 23.5182 44.2816C23.56 44.5532 23.5812 45.1074 23.5812 45.1074C23.5812 45.1074 22.479 44.5114 21.9256 45.0257C21.4392 45.6015 22.1141 46.6458 22.1141 46.6458C22.1141 46.6458 21.55 46.6596 21.272 46.636C21.6808 48.0185 23.0518 47.9206 23.3485 47.6478C23.3291 47.8678 23.825 48.1811 24.245 47.9297L24.4294 47.8403C24.462 47.884 28.3779 51.5838 28.3779 51.5838C28.1981 51.8507 28.1125 52.1784 28.1715 52.5276C28.2644 53.0733 28.7191 53.5257 29.2998 53.6431C29.7098 53.7254 30.0954 53.6457 30.4046 53.4649L31.4412 54.4271C31.5335 54.5107 31.6582 54.5628 31.7975 54.5531C32.051 54.536 32.2408 54.3304 32.2216 54.0948C32.2136 53.9884 32.1592 53.8971 32.0842 53.8279C32.0676 53.8096 31.0284 52.8448 31.0284 52.8448C31.8857 52.2436 33.483 51.8201 34.8089 51.8201C35.0418 51.8201 35.1513 51.623 35.071 51.4297C34.4704 49.9852 35.7618 48.9389 37.0977 49.7907C37.6804 50.1621 38.2723 50.8938 38.7183 52.1144C36.5264 52.6452 33.7744 54.1071 33.2177 55.7032C33.0033 56.3194 33.7114 57.1594 34.5714 57.3285C34.5866 57.3319 34.6025 57.329 34.6156 57.3205C34.6287 57.3121 34.6379 57.2987 34.6411 57.2834C35.0904 54.9009 37.6525 53.1254 38.9857 52.8239C39.0528 53.0034 39.0308 52.9453 39.0979 53.1241C37.6459 53.8108 36.2377 55.2592 35.8356 56.9811C35.6511 57.7696 36.5304 58.4804 37.2563 58.675C37.2928 58.6847 37.3287 58.6593 37.3307 58.6241C37.4687 56.4465 38.4303 54.5973 39.2916 53.756C39.3152 53.9204 39.3329 54.0857 39.3447 54.2514C39.3447 54.2514 38.4628 56.7089 38.4628 58.502C38.4628 59.3361 39.7024 59.9184 39.8856 60C40.1145 59.9184 41.3535 59.3361 41.3535 58.502C41.3535 56.7089 40.4716 54.2514 40.4716 54.2514C40.4836 54.0857 40.5015 53.9204 40.5253 53.756C41.386 54.5973 42.3482 56.4459 42.4856 58.6233C42.4876 58.6586 42.5241 58.6847 42.5598 58.675C43.2866 58.4805 44.1652 57.7697 43.9813 56.9812C43.5784 55.2593 42.171 53.8109 40.719 53.1242C40.7853 52.9454 40.7634 53.0034 40.8305 52.8239C42.1644 53.1255 44.7259 54.9008 45.1752 57.2834C45.1784 57.2986 45.1876 57.3119 45.2007 57.3204C45.2138 57.3288 45.2297 57.3317 45.2449 57.3285C46.1042 57.1594 46.8136 56.3193 46.5979 55.7032C46.0425 54.1072 43.2899 52.6452 41.098 52.1145C41.5446 50.8939 42.1365 50.1622 42.7191 49.7908C44.0543 48.939 45.3457 49.9854 44.7451 51.4298C44.6648 51.623 44.7736 51.8201 45.0073 51.8201C46.5069 51.8201 48.3544 52.3619 49.0856 53.0884C49.5529 53.7894 50.4162 54.2378 51.3904 54.1418C52.4973 54.0335 53.3999 53.2019 53.5246 52.1739C53.6334 51.2731 53.1676 50.4644 52.425 50.0238L51.1302 51.0421L51.1302 51.0418ZM41.5921 44.4799C42.0533 44.309 42.776 44.4473 42.7514 45.113C42.7455 45.2638 42.9572 45.2638 42.9725 45.1097C43.1105 44.1131 42.4369 43.8258 41.7322 43.9427C41.6446 43.5999 41.5729 43.3004 41.4913 43.0034C41.4263 42.7633 41.4024 42.3121 41.6805 42.3121C41.8305 42.3121 41.7701 42.7319 41.7562 42.9126C41.7435 43.0712 41.8006 43.1672 41.9294 43.1718C42.0097 43.175 42.1099 43.0726 42.1696 43.0046C42.5732 42.5484 42.6667 41.8422 42.1942 41.5015C41.7988 41.2156 40.8086 41.4284 40.5364 41.8356C40.4954 41.6822 40.2989 41.429 40.2046 41.3186C40.1131 41.211 40.0892 41.1372 40.216 41.0426C40.2757 40.9969 40.4562 40.8174 40.4562 40.632C40.4562 40.5224 40.3713 40.32 40.1012 40.32C39.8882 40.32 39.6513 40.4676 39.6513 40.7965C39.6513 40.8697 39.6692 40.9481 39.7163 41.0323C39.5815 41.01 39.2159 41.0192 39.0281 41.0655L41.6248 48.1914C42.3681 47.8245 42.9129 47.2436 42.9129 46.6203C42.9129 46.0889 42.1304 46.2651 41.7502 46.6796C41.6281 46.006 41.5192 45.384 41.4005 44.7638C41.3681 44.5928 41.4549 44.5315 41.5923 44.4799L41.5921 44.4799ZM37.9204 39.6393L38.4659 41.1549C37.9987 41.2659 37.2475 41.6066 37.2475 42.0576C37.2475 42.6582 38.3099 43.0492 38.9245 43.0021C38.8939 43.1392 38.9292 43.2613 39.0247 43.3729C38.8017 43.3729 38.3811 43.4766 38.243 43.6255C37.9171 43.322 37.4075 43.2116 37.1652 43.3964C36.9217 43.5824 36.9145 43.8977 37.1686 44.2541C37.3457 44.5008 37.4121 44.7443 37.2131 45.0301C37.9536 45.0301 37.6808 44.0674 37.9708 44.0674C37.933 44.2541 37.9563 44.4701 38.0406 44.7097C38.0963 44.8689 38.0963 44.9819 38.0008 45.1352C37.7619 45.5171 37.3903 46.3944 37.4407 47.1875C37.1978 47.1861 37.0744 47.1266 37.16 46.7951C37.1918 46.6717 37.1156 46.5836 37.0147 46.7357C36.9032 46.9035 36.8494 47.19 36.8494 47.3126C36.8494 48.019 37.6908 48.1612 38.012 48.0118C38.9411 48.9109 40.7661 48.671 41.3772 48.3695L38.1641 39.553C38.0983 39.3866 37.8628 39.4662 37.9205 39.6392L37.9204 39.6393ZM37.8089 46.9016C37.7425 46.5386 38.2475 45.8898 38.8899 45.2638C38.7532 45.6717 38.8382 46.3748 39.1062 46.617C38.6403 46.617 38.0869 46.7044 37.8089 46.9016H37.8089Z" fill="#D0D6DA"/>
</svg>
