<svg width="59" height="80" viewBox="0 0 59 80" fill="none" xmlns="http://www.w3.org/2000/svg">
<g clip-path="url(#clip0)">
<path d="M55.9987 0.333374H2.66536C1.3767 0.333374 0.332031 1.37804 0.332031 2.66671V77.3334C0.332031 78.622 1.3767 79.6667 2.66536 79.6667H55.9987C57.2874 79.6667 58.332 78.622 58.332 77.3334V2.66671C58.332 1.37804 57.2874 0.333374 55.9987 0.333374Z" fill="white" stroke="#E7E5F0"/>
<path fill-rule="evenodd" clip-rule="evenodd" d="M27.9987 26.6666H5.33203V41.3333H28.6654V26.6666H27.9987ZM27.9987 27.3333H5.9987V31.3333H27.9987V27.3333ZM27.9987 32H5.9987V36H27.9987V32ZM27.9987 36.6666H5.9987V40.6666H27.9987V36.6666ZM52.6654 26.6666H29.9987V41.3333H53.332V26.6666H52.6654ZM52.6654 27.3333H30.6654V31.3333H52.6654V27.3333ZM52.6654 32H30.6654V36H52.6654V32ZM52.6654 36.6666H30.6654V40.6666H52.6654V36.6666Z" fill="#E7E5F0"/>
<path fill-rule="evenodd" clip-rule="evenodd" d="M5.33203 46.6666H13.332V48H5.33203V46.6666ZM5.33203 50.6666H13.332V52H5.33203V50.6666ZM19.9987 54.6666H11.9987V56H19.9987V54.6666ZM5.33203 58.6666H13.332V60H5.33203V58.6666ZM31.9987 46.6666H26.6654V48H31.9987V46.6666ZM30.6654 52V50.6666H35.9987V52H30.6654ZM10.6654 54.6666H5.33203V56H10.6654V54.6666ZM14.6654 58.6666H19.9987V60H14.6654V58.6666ZM41.332 46.6666H33.332V48H41.332V46.6666ZM45.332 50.6666H53.332V52H45.332V50.6666ZM53.332 54.6666H45.332V56H53.332V54.6666ZM42.6654 46.6666H45.332V48H42.6654V46.6666ZM29.332 50.6666H26.6654V52H29.332V50.6666ZM21.332 54.6666H23.9987V56H21.332V54.6666ZM53.332 46.6666H46.6654V48H53.332V46.6666ZM37.332 50.6666H43.9987V52H37.332V50.6666ZM43.9987 54.6666H37.332V56H43.9987V54.6666ZM14.6654 46.6666H25.332V48H14.6654V46.6666ZM25.332 50.6666H14.6654V52H25.332V50.6666ZM35.9987 54.6666V56H25.332V54.6666H35.9987ZM31.9987 60V58.6666H21.332V60H31.9987Z" fill="#B9B6C9"/>
<path fill-rule="evenodd" clip-rule="evenodd" d="M52.666 69.3333C52.666 71.9107 50.5767 74 47.9993 74C45.422 74 43.3327 71.9107 43.3327 69.3333C43.3327 66.756 45.422 64.6667 47.9993 64.6667C50.5767 64.6667 52.666 66.756 52.666 69.3333ZM53.3327 69.3333C53.3327 72.2787 50.9449 74.6667 47.9993 74.6667C45.0538 74.6667 42.666 72.2787 42.666 69.3333C42.666 66.3878 45.0538 64 47.9993 64C50.9449 64 53.3327 66.3878 53.3327 69.3333ZM50.666 69.3333C50.666 70.806 49.4721 72 47.9993 72C46.5266 72 45.3327 70.806 45.3327 69.3333C45.3327 67.8607 46.5266 66.6667 47.9993 66.6667C49.4721 66.6667 50.666 67.8607 50.666 69.3333ZM51.3327 69.3333C51.3327 71.174 49.8403 72.6667 47.9993 72.6667C46.1584 72.6667 44.666 71.174 44.666 69.3333C44.666 67.4927 46.1584 66 47.9993 66C49.8403 66 51.3327 67.4927 51.3327 69.3333Z" fill="#A391F3"/>
</g>
<defs>
<clipPath id="clip0">
<rect width="58.6667" height="80" fill="white"/>
</clipPath>
</defs>
</svg>
