<svg width="59" height="80" viewBox="0 0 59 80" fill="none" xmlns="http://www.w3.org/2000/svg">
<g clip-path="url(#clip0)">
<path d="M55.9987 0.333374H2.66536C1.3767 0.333374 0.332031 1.37804 0.332031 2.66671V77.3334C0.332031 78.622 1.3767 79.6667 2.66536 79.6667H55.9987C57.2874 79.6667 58.332 78.622 58.332 77.3334V2.66671C58.332 1.37804 57.2874 0.333374 55.9987 0.333374Z" fill="white" stroke="#E7E5F0"/>
<path fill-rule="evenodd" clip-rule="evenodd" d="M52.6654 5.33337H5.33203V37.3334H53.332V5.33337H52.6654ZM52.6654 6.00004H29.9987V10H52.6654V6.00004ZM52.6654 10.6667H29.9987V36.6667H52.6654V10.6667ZM5.9987 6.00004H29.332V10H5.9987V6.00004ZM5.9987 10.6667H29.332V36.6667H5.9987V10.6667Z" fill="#B9B6C9"/>
<path fill-rule="evenodd" clip-rule="evenodd" d="M29.3346 48.6666H14.668V50H29.3346V48.6666ZM24.668 51.3333H14.668V52.6666H24.668V51.3333Z" fill="#B9B6C9"/>
<path fill-rule="evenodd" clip-rule="evenodd" d="M26.0013 13.3334H8.66797V14.6667H26.0013V13.3334ZM50.0013 13.3334H32.668V14.6667H50.0013V13.3334ZM8.66797 20H26.0013V21.3334H8.66797V20ZM50.0013 20H32.668V21.3334H50.0013V20ZM8.66797 26.6667H26.0013V28H8.66797V26.6667ZM18.668 16H8.66797V17.3334H18.668V16ZM32.668 16H42.668V17.3334H32.668V16ZM13.3346 22.6667H8.66797V24H13.3346V22.6667ZM32.668 22.6667H37.3346V24H32.668V22.6667ZM16.668 29.3334H8.66797V30.6667H16.668V29.3334Z" fill="#B9B6C9"/>
<path fill-rule="evenodd" clip-rule="evenodd" d="M43.332 50.6667C43.332 53.244 41.2427 55.3334 38.6654 55.3334C36.088 55.3334 33.9987 53.244 33.9987 50.6667C33.9987 48.0894 36.088 46 38.6654 46C41.2427 46 43.332 48.0894 43.332 50.6667ZM43.9987 50.6667C43.9987 53.6122 41.6109 56 38.6654 56C35.7198 56 33.332 53.6122 33.332 50.6667C33.332 47.7212 35.7198 45.3334 38.6654 45.3334C41.6109 45.3334 43.9987 47.7212 43.9987 50.6667ZM41.332 50.6667C41.332 52.1394 40.1381 53.3334 38.6654 53.3334C37.1926 53.3334 35.9987 52.1394 35.9987 50.6667C35.9987 49.194 37.1926 48 38.6654 48C40.1381 48 41.332 49.194 41.332 50.6667ZM41.9987 50.6667C41.9987 52.5076 40.5063 54 38.6654 54C36.8244 54 35.332 52.5076 35.332 50.6667C35.332 48.8258 36.8244 47.3334 38.6654 47.3334C40.5063 47.3334 41.9987 48.8258 41.9987 50.6667Z" fill="#A391F3"/>
<path fill-rule="evenodd" clip-rule="evenodd" d="M50 30C50 32.5773 47.9107 34.6666 45.3333 34.6666C42.756 34.6666 40.6667 32.5773 40.6667 30C40.6667 27.4226 42.756 25.3333 45.3333 25.3333C47.9107 25.3333 50 27.4226 50 30ZM50.6667 30C50.6667 32.9455 48.2789 35.3333 45.3333 35.3333C42.3878 35.3333 40 32.9455 40 30C40 27.0544 42.3878 24.6666 45.3333 24.6666C48.2789 24.6666 50.6667 27.0544 50.6667 30ZM48 30C48 31.4727 46.8061 32.6666 45.3333 32.6666C43.8606 32.6666 42.6667 31.4727 42.6667 30C42.6667 28.5272 43.8606 27.3333 45.3333 27.3333C46.8061 27.3333 48 28.5272 48 30ZM48.6667 30C48.6667 31.8409 47.1743 33.3333 45.3333 33.3333C43.4924 33.3333 42 31.8409 42 30C42 28.159 43.4924 26.6666 45.3333 26.6666C47.1743 26.6666 48.6667 28.159 48.6667 30Z" fill="#77738C"/>
</g>
<defs>
<clipPath id="clip0">
<rect width="58.6667" height="80" fill="white"/>
</clipPath>
</defs>
</svg>
