<svg width="34" height="45" viewBox="0 0 34 45" fill="none" xmlns="http://www.w3.org/2000/svg">
<path d="M1 44V1H20.5858L33 13.4142V44H1Z" stroke="#D0D6DA" stroke-width="2"/>
<path d="M6.75879 35H8.60396V32.1704H10.1551C12.1622 32.1704 13.3298 30.973 13.3298 29.2301C13.3298 27.4957 12.1835 26.2727 10.202 26.2727H6.75879V35ZM8.60396 30.6917V27.7812H9.84828C10.9136 27.7812 11.4292 28.3608 11.4292 29.2301C11.4292 30.0951 10.9136 30.6917 9.8568 30.6917H8.60396Z" fill="#3B454E"/>
<path d="M17.3821 35C20.0412 35 21.652 33.3551 21.652 30.6278C21.652 27.9091 20.0412 26.2727 17.4076 26.2727H14.2883V35H17.3821ZM16.1335 33.419V27.8537H17.3096C18.946 27.8537 19.811 28.6889 19.811 30.6278C19.811 32.5753 18.946 33.419 17.3054 33.419H16.1335Z" fill="#3B454E"/>
<path d="M22.7788 35H24.624V31.3949H28.1737V29.8736H24.624V27.794H28.5572V26.2727H22.7788V35Z" fill="#3B454E"/>
</svg>
