<svg width="24" height="24" viewBox="0 0 24 24" fill="none" xmlns="http://www.w3.org/2000/svg">
<rect opacity="0.1" width="24" height="24" rx="12" fill="#FF9F2F"/>
<path d="M17.5 13.9999C17.5 15.1045 16.6046 15.9999 15.5 15.9999C14.3954 15.9999 13.5 15.1045 13.5 13.9999C13.5 12.8954 14.3954 11.9999 15.5 11.9999C16.6046 11.9999 17.5 12.8954 17.5 13.9999Z" fill="#FF9F2F"/>
<path d="M10.5 9.99995C10.5 11.1045 9.60457 11.9999 8.5 11.9999C7.39543 11.9999 6.5 11.1045 6.5 9.99995C6.5 8.89538 7.39543 7.99995 8.5 7.99995C9.60457 7.99995 10.5 8.89538 10.5 9.99995Z" fill="#FF9F2F"/>
<path fill-rule="evenodd" clip-rule="evenodd" d="M9.10557 15.5527L13.1056 7.55273L14.8944 8.44716L10.8944 16.4472L9.10557 15.5527Z" fill="#FF9F2F"/>
</svg>
