<svg width="12" height="10" viewBox="0 0 12 10" fill="none" xmlns="http://www.w3.org/2000/svg">
<path d="M11.5 6.99995C11.5 8.10452 10.6046 8.99995 9.5 8.99995C8.39543 8.99995 7.5 8.10452 7.5 6.99995C7.5 5.89538 8.39543 4.99995 9.5 4.99995C10.6046 4.99995 11.5 5.89538 11.5 6.99995Z" fill="#FF9F2F"/>
<path d="M4.5 2.99995C4.5 4.10452 3.60457 4.99995 2.5 4.99995C1.39543 4.99995 0.5 4.10452 0.5 2.99995C0.5 1.89538 1.39543 0.999948 2.5 0.999948C3.60457 0.999948 4.5 1.89538 4.5 2.99995Z" fill="#FF9F2F"/>
<path fill-rule="evenodd" clip-rule="evenodd" d="M3.10557 8.55273L7.10557 0.552734L8.89443 1.44716L4.89443 9.44716L3.10557 8.55273Z" fill="#FF9F2F"/>
</svg>
