<svg width="12" height="19" viewBox="0 0 12 19" fill="none" xmlns="http://www.w3.org/2000/svg">
<path d="M2.34736 6.26L5.01819 4.32C5.31801 4.10059 5.68269 3.98793 6.05402 4C6.50695 4.01129 6.9451 4.16342 7.30756 4.43524C7.67003 4.70705 7.93881 5.08504 8.07652 5.51667C8.23152 6.0025 8.37319 6.33083 8.50152 6.50167C8.88928 7.019 9.39228 7.43884 9.97061 7.72786C10.5489 8.01688 11.1867 8.16712 11.8332 8.16667V9.83333C10.9726 9.83427 10.1225 9.6444 9.34411 9.27739C8.56571 8.91038 7.87835 8.37535 7.33152 7.71083L6.75069 11.0067L8.46819 12.4483L10.3207 17.5383L8.75402 18.1083L7.05402 13.4383L4.22902 11.0675C3.99719 10.8803 3.81979 10.6344 3.71529 10.3553C3.61079 10.0762 3.58301 9.77427 3.63486 9.48083L4.05902 7.07667L3.49486 7.48667L1.72236 9.92667L0.374023 8.94667L2.33319 6.25L2.34736 6.26ZM7.24986 3.58333C6.80783 3.58333 6.38391 3.40774 6.07135 3.09518C5.75879 2.78262 5.58319 2.35869 5.58319 1.91667C5.58319 1.47464 5.75879 1.05072 6.07135 0.738155C6.38391 0.425595 6.80783 0.25 7.24986 0.25C7.69188 0.25 8.11581 0.425595 8.42837 0.738155C8.74093 1.05072 8.91652 1.47464 8.91652 1.91667C8.91652 2.35869 8.74093 2.78262 8.42837 3.09518C8.11581 3.40774 7.69188 3.58333 7.24986 3.58333ZM4.77319 14.5675L2.09486 17.7592L0.81819 16.6883L3.29819 13.7333L3.91986 11.9167L5.41236 13.1667L4.77319 14.5675Z" fill="#909497"/>
</svg>
